<svg xmlns="http://www.w3.org/2000/svg" viewBox="0 0 128 128" fill="none">
  <defs>
    <linearGradient id="g" x1="20" y1="8" x2="108" y2="120" gradientUnits="userSpaceOnUse">
      <stop offset="0" stop-color="#FF2D9E"/>
      <stop offset="0.55" stop-color="#E6007E"/>
      <stop offset="1" stop-color="#7B2FF7"/>
    </linearGradient>
  </defs>
  <!-- 위치 핀 외곽 -->
  <path d="M64 6C38 6 17 27 17 53c0 33 38 63 45 68 2 1.6 4 1.6 6 0 7-5 45-35 45-68C113 27 90 6 64 6z"
        stroke="url(#g)" stroke-width="9" stroke-linejoin="round"/>
  <!-- 내부 나선 -->
  <path d="M84 50c0-12-10-21-22-21s-21 9-21 20c0 10 8 18 18 18 8 0 15-6 15-14 0-6-5-11-11-11-5 0-9 4-9 9 0 3 2 6 6 6"
        stroke="url(#g)" stroke-width="9" stroke-linecap="round" fill="none"/>
</svg>
